<mxfile host="65bd71144e">
    <diagram id="VigC6EIP_8LzRgeU_lkh" name="Page-1">
        <mxGraphModel dx="2264" dy="2464" grid="1" gridSize="10" guides="1" tooltips="1" connect="1" arrows="1" fold="1" page="1" pageScale="1" pageWidth="1200" pageHeight="1600" background="none" math="0" shadow="0">
            <root>
                <mxCell id="0"/>
                <mxCell id="1" parent="0"/>
                <mxCell id="163" value="" style="edgeStyle=orthogonalEdgeStyle;rounded=0;orthogonalLoop=1;jettySize=auto;html=1;endArrow=none;endFill=0;exitX=0.25;exitY=0;exitDx=0;exitDy=0;entryX=0;entryY=0.5;entryDx=0;entryDy=0;" parent="1" source="13" target="162" edge="1">
                    <mxGeometry relative="1" as="geometry">
                        <mxPoint x="140" y="15" as="targetPoint"/>
                        <Array as="points">
                            <mxPoint x="140" y="55"/>
                        </Array>
                    </mxGeometry>
                </mxCell>
                <mxCell id="233" style="edgeStyle=orthogonalEdgeStyle;rounded=0;orthogonalLoop=1;jettySize=auto;html=1;exitX=0.25;exitY=0;exitDx=0;exitDy=0;entryX=0;entryY=0.5;entryDx=0;entryDy=0;endArrow=none;endFill=0;" edge="1" parent="1" source="13" target="232">
                    <mxGeometry relative="1" as="geometry"/>
                </mxCell>
                <mxCell id="13" value="Especies" style="whiteSpace=wrap;html=1;" parent="1" vertex="1">
                    <mxGeometry x="110" y="120" width="120" height="60" as="geometry"/>
                </mxCell>
                <mxCell id="22" style="edgeStyle=orthogonalEdgeStyle;rounded=0;orthogonalLoop=1;jettySize=auto;html=1;exitX=0.5;exitY=0;exitDx=0;exitDy=0;entryX=0.5;entryY=1;entryDx=0;entryDy=0;endArrow=none;endFill=0;" parent="1" source="238" target="13" edge="1">
                    <mxGeometry relative="1" as="geometry">
                        <mxPoint x="170" y="250" as="sourcePoint"/>
                    </mxGeometry>
                </mxCell>
                <mxCell id="24" value="" style="edgeStyle=orthogonalEdgeStyle;rounded=0;orthogonalLoop=1;jettySize=auto;html=1;endArrow=none;endFill=0;exitX=0.5;exitY=1;exitDx=0;exitDy=0;" parent="1" source="238" target="23" edge="1">
                    <mxGeometry relative="1" as="geometry">
                        <mxPoint x="170" y="310" as="sourcePoint"/>
                    </mxGeometry>
                </mxCell>
                <mxCell id="176" value="" style="edgeStyle=orthogonalEdgeStyle;rounded=0;orthogonalLoop=1;jettySize=auto;html=1;endArrow=none;endFill=0;entryX=0.5;entryY=1;entryDx=0;entryDy=0;" parent="1" source="23" target="175" edge="1">
                    <mxGeometry relative="1" as="geometry"/>
                </mxCell>
                <mxCell id="23" value="Ejemplares" style="whiteSpace=wrap;html=1;dashed=1;" parent="1" vertex="1">
                    <mxGeometry x="110" y="370" width="120" height="60" as="geometry"/>
                </mxCell>
                <mxCell id="27" style="edgeStyle=orthogonalEdgeStyle;rounded=0;orthogonalLoop=1;jettySize=auto;html=1;exitX=0;exitY=0.5;exitDx=0;exitDy=0;entryX=1;entryY=0.5;entryDx=0;entryDy=0;endArrow=none;endFill=0;" parent="1" source="26" target="23" edge="1">
                    <mxGeometry relative="1" as="geometry">
                        <Array as="points">
                            <mxPoint x="290" y="400"/>
                            <mxPoint x="290" y="400"/>
                        </Array>
                    </mxGeometry>
                </mxCell>
                <mxCell id="29" value="" style="edgeStyle=orthogonalEdgeStyle;rounded=0;orthogonalLoop=1;jettySize=auto;html=1;endArrow=none;endFill=0;" parent="1" source="26" target="28" edge="1">
                    <mxGeometry relative="1" as="geometry"/>
                </mxCell>
                <mxCell id="242" style="edgeStyle=orthogonalEdgeStyle;rounded=0;orthogonalLoop=1;jettySize=auto;html=1;endArrow=none;endFill=0;" edge="1" parent="1" source="26" target="243">
                    <mxGeometry relative="1" as="geometry">
                        <mxPoint x="370" y="480" as="targetPoint"/>
                    </mxGeometry>
                </mxCell>
                <mxCell id="26" value="Tiene&lt;br&gt;asignado" style="shape=rhombus;perimeter=rhombusPerimeter;whiteSpace=wrap;html=1;align=center;" parent="1" vertex="1">
                    <mxGeometry x="310" y="370" width="120" height="60" as="geometry"/>
                </mxCell>
                <mxCell id="190" value="" style="edgeStyle=orthogonalEdgeStyle;rounded=0;orthogonalLoop=1;jettySize=auto;html=1;endArrow=none;endFill=0;entryX=0;entryY=0.5;entryDx=0;entryDy=0;exitX=0.25;exitY=1;exitDx=0;exitDy=0;" parent="1" source="28" target="189" edge="1">
                    <mxGeometry relative="1" as="geometry"/>
                </mxCell>
                <mxCell id="235" style="edgeStyle=orthogonalEdgeStyle;rounded=0;orthogonalLoop=1;jettySize=auto;html=1;endArrow=none;endFill=0;" edge="1" parent="1" source="28" target="236">
                    <mxGeometry relative="1" as="geometry">
                        <mxPoint x="650" y="120" as="targetPoint"/>
                        <Array as="points">
                            <mxPoint x="580" y="150"/>
                        </Array>
                    </mxGeometry>
                </mxCell>
                <mxCell id="28" value="Cuidadores" style="whiteSpace=wrap;html=1;" parent="1" vertex="1">
                    <mxGeometry x="520" y="340" width="120" height="60" as="geometry"/>
                </mxCell>
                <mxCell id="203" value="" style="edgeStyle=orthogonalEdgeStyle;rounded=0;orthogonalLoop=1;jettySize=auto;html=1;endArrow=none;endFill=0;exitX=0.25;exitY=1;exitDx=0;exitDy=0;entryX=0;entryY=0.5;entryDx=0;entryDy=0;" parent="1" source="157" target="202" edge="1">
                    <mxGeometry relative="1" as="geometry">
                        <Array as="points">
                            <mxPoint x="1050" y="1110"/>
                            <mxPoint x="1050" y="1190"/>
                        </Array>
                    </mxGeometry>
                </mxCell>
                <mxCell id="157" value="Voluntarios" style="whiteSpace=wrap;html=1;" parent="1" vertex="1">
                    <mxGeometry x="1040" y="1050" width="120" height="60" as="geometry"/>
                </mxCell>
                <mxCell id="160" style="edgeStyle=orthogonalEdgeStyle;rounded=0;orthogonalLoop=1;jettySize=auto;html=1;exitX=1;exitY=0.5;exitDx=0;exitDy=0;entryX=0;entryY=0.5;entryDx=0;entryDy=0;endArrow=none;endFill=0;" parent="1" source="159" target="157" edge="1">
                    <mxGeometry relative="1" as="geometry"/>
                </mxCell>
                <mxCell id="161" style="edgeStyle=orthogonalEdgeStyle;rounded=0;orthogonalLoop=1;jettySize=auto;html=1;exitX=0;exitY=0.5;exitDx=0;exitDy=0;entryX=0.5;entryY=1;entryDx=0;entryDy=0;endArrow=none;endFill=0;" parent="1" source="159" target="23" edge="1">
                    <mxGeometry relative="1" as="geometry"/>
                </mxCell>
                <mxCell id="159" value="Tiene&amp;nbsp;&lt;br&gt;asignado" style="shape=rhombus;perimeter=rhombusPerimeter;whiteSpace=wrap;html=1;align=center;" parent="1" vertex="1">
                    <mxGeometry x="354" y="1050" width="120" height="60" as="geometry"/>
                </mxCell>
                <mxCell id="162" value="Nombre&lt;br&gt;Genérico" style="ellipse;whiteSpace=wrap;html=1;strokeColor=#FFFFFF;" parent="1" vertex="1">
                    <mxGeometry x="160" y="30" width="100" height="50" as="geometry"/>
                </mxCell>
                <mxCell id="164" value="Nombre&lt;br&gt;Científico" style="ellipse;whiteSpace=wrap;html=1;strokeColor=#000000;" parent="1" vertex="1">
                    <mxGeometry x="160" y="-40" width="100" height="50" as="geometry"/>
                </mxCell>
                <mxCell id="165" value="" style="edgeStyle=orthogonalEdgeStyle;rounded=0;orthogonalLoop=1;jettySize=auto;html=1;endArrow=none;endFill=0;exitX=0.25;exitY=0;exitDx=0;exitDy=0;entryX=0;entryY=0.5;entryDx=0;entryDy=0;" parent="1" source="13" target="164" edge="1">
                    <mxGeometry relative="1" as="geometry">
                        <mxPoint x="130" y="55.029999999999774" as="sourcePoint"/>
                        <mxPoint x="150" y="-9.970000000000228" as="targetPoint"/>
                        <Array as="points">
                            <mxPoint x="140" y="-15"/>
                        </Array>
                    </mxGeometry>
                </mxCell>
                <mxCell id="166" value="Familia" style="ellipse;whiteSpace=wrap;html=1;" parent="1" vertex="1">
                    <mxGeometry x="160" y="-110" width="100" height="50" as="geometry"/>
                </mxCell>
                <mxCell id="167" value="" style="edgeStyle=orthogonalEdgeStyle;rounded=0;orthogonalLoop=1;jettySize=auto;html=1;endArrow=none;endFill=0;exitX=0.25;exitY=0;exitDx=0;exitDy=0;entryX=0;entryY=0.5;entryDx=0;entryDy=0;" parent="1" source="13" target="166" edge="1">
                    <mxGeometry relative="1" as="geometry">
                        <mxPoint x="130" y="52.49999999999977" as="sourcePoint"/>
                        <mxPoint x="150" y="-82.50000000000023" as="targetPoint"/>
                        <Array as="points">
                            <mxPoint x="140" y="-83"/>
                            <mxPoint x="160" y="-83"/>
                        </Array>
                    </mxGeometry>
                </mxCell>
                <mxCell id="168" value="Descripción&lt;br&gt;Cuidados" style="ellipse;whiteSpace=wrap;html=1;" parent="1" vertex="1">
                    <mxGeometry x="160" y="-170" width="100" height="50" as="geometry"/>
                </mxCell>
                <mxCell id="169" value="" style="edgeStyle=orthogonalEdgeStyle;rounded=0;orthogonalLoop=1;jettySize=auto;html=1;endArrow=none;endFill=0;exitX=0.25;exitY=0;exitDx=0;exitDy=0;entryX=0;entryY=0.5;entryDx=0;entryDy=0;" parent="1" source="13" target="168" edge="1">
                    <mxGeometry relative="1" as="geometry">
                        <mxPoint x="130" y="54.99999999999977" as="sourcePoint"/>
                        <mxPoint x="150" y="-149.99999999999977" as="targetPoint"/>
                        <Array as="points">
                            <mxPoint x="140" y="-145"/>
                        </Array>
                    </mxGeometry>
                </mxCell>
                <mxCell id="170" value="Infomación" style="ellipse;whiteSpace=wrap;html=1;" parent="1" vertex="1">
                    <mxGeometry x="160" y="-230" width="100" height="50" as="geometry"/>
                </mxCell>
                <mxCell id="171" value="" style="edgeStyle=orthogonalEdgeStyle;rounded=0;orthogonalLoop=1;jettySize=auto;html=1;endArrow=none;endFill=0;exitX=0.25;exitY=0;exitDx=0;exitDy=0;entryX=0;entryY=0.5;entryDx=0;entryDy=0;" parent="1" source="13" target="170" edge="1">
                    <mxGeometry relative="1" as="geometry">
                        <mxPoint x="130" y="64.99999999999977" as="sourcePoint"/>
                        <mxPoint x="150" y="-200" as="targetPoint"/>
                        <Array as="points">
                            <mxPoint x="140" y="-205"/>
                        </Array>
                    </mxGeometry>
                </mxCell>
                <mxCell id="173" value="Explicación de la&lt;br&gt;especie" style="ellipse;whiteSpace=wrap;html=1;" parent="1" vertex="1">
                    <mxGeometry x="160" y="-290" width="100" height="50" as="geometry"/>
                </mxCell>
                <mxCell id="174" value="" style="edgeStyle=orthogonalEdgeStyle;rounded=0;orthogonalLoop=1;jettySize=auto;html=1;endArrow=none;endFill=0;exitX=0.25;exitY=0;exitDx=0;exitDy=0;entryX=0;entryY=0.5;entryDx=0;entryDy=0;" parent="1" source="13" target="173" edge="1">
                    <mxGeometry relative="1" as="geometry">
                        <mxPoint x="130" y="54.99999999999977" as="sourcePoint"/>
                        <mxPoint x="150" y="-270" as="targetPoint"/>
                        <Array as="points">
                            <mxPoint x="140" y="-265"/>
                        </Array>
                    </mxGeometry>
                </mxCell>
                <mxCell id="175" value="Números&amp;nbsp;&lt;br&gt;correlativos" style="ellipse;whiteSpace=wrap;html=1;strokeColor=#000000;" parent="1" vertex="1">
                    <mxGeometry x="-40" y="320" width="120" height="60" as="geometry"/>
                </mxCell>
                <mxCell id="177" value="Fecha&lt;br&gt;nacimiento" style="ellipse;whiteSpace=wrap;html=1;" parent="1" vertex="1">
                    <mxGeometry x="-170" y="320" width="120" height="60" as="geometry"/>
                </mxCell>
                <mxCell id="178" value="" style="edgeStyle=orthogonalEdgeStyle;rounded=0;orthogonalLoop=1;jettySize=auto;html=1;endArrow=none;endFill=0;entryX=0.5;entryY=1;entryDx=0;entryDy=0;exitX=0;exitY=0.5;exitDx=0;exitDy=0;" parent="1" source="23" target="177" edge="1">
                    <mxGeometry relative="1" as="geometry">
                        <mxPoint x="-20" y="410.01882352941175" as="sourcePoint"/>
                        <mxPoint x="-110" y="389.96000000000004" as="targetPoint"/>
                    </mxGeometry>
                </mxCell>
                <mxCell id="179" value="Fecha&lt;br&gt;Muerte&amp;nbsp;&lt;br&gt;(en caso de que&lt;br&gt;haya fallecido)" style="ellipse;whiteSpace=wrap;html=1;" parent="1" vertex="1">
                    <mxGeometry x="-300" y="320" width="120" height="60" as="geometry"/>
                </mxCell>
                <mxCell id="180" value="" style="edgeStyle=orthogonalEdgeStyle;rounded=0;orthogonalLoop=1;jettySize=auto;html=1;endArrow=none;endFill=0;entryX=0.5;entryY=1;entryDx=0;entryDy=0;exitX=0;exitY=0.5;exitDx=0;exitDy=0;" parent="1" source="23" target="179" edge="1">
                    <mxGeometry relative="1" as="geometry">
                        <mxPoint x="-20" y="409.97" as="sourcePoint"/>
                        <mxPoint x="-240" y="389.97" as="targetPoint"/>
                    </mxGeometry>
                </mxCell>
                <mxCell id="181" value="Nombre" style="ellipse;whiteSpace=wrap;html=1;" parent="1" vertex="1">
                    <mxGeometry x="-430" y="320" width="120" height="60" as="geometry"/>
                </mxCell>
                <mxCell id="182" value="" style="edgeStyle=orthogonalEdgeStyle;rounded=0;orthogonalLoop=1;jettySize=auto;html=1;endArrow=none;endFill=0;entryX=0.5;entryY=1;entryDx=0;entryDy=0;exitX=0;exitY=0.5;exitDx=0;exitDy=0;" parent="1" source="23" target="181" edge="1">
                    <mxGeometry relative="1" as="geometry">
                        <mxPoint x="-20" y="420" as="sourcePoint"/>
                        <mxPoint x="-370" y="400" as="targetPoint"/>
                    </mxGeometry>
                </mxCell>
                <mxCell id="183" value="Si han pertenecido&lt;br&gt;al zoo o no" style="ellipse;whiteSpace=wrap;html=1;" parent="1" vertex="1">
                    <mxGeometry x="-560" y="320" width="120" height="60" as="geometry"/>
                </mxCell>
                <mxCell id="184" value="" style="edgeStyle=orthogonalEdgeStyle;rounded=0;orthogonalLoop=1;jettySize=auto;html=1;endArrow=none;endFill=0;entryX=0.5;entryY=1;entryDx=0;entryDy=0;exitX=0;exitY=0.5;exitDx=0;exitDy=0;" parent="1" source="23" target="183" edge="1">
                    <mxGeometry relative="1" as="geometry">
                        <mxPoint x="-20" y="409.97" as="sourcePoint"/>
                        <mxPoint x="-500" y="389.97" as="targetPoint"/>
                    </mxGeometry>
                </mxCell>
                <mxCell id="185" value="Madre" style="ellipse;whiteSpace=wrap;html=1;" parent="1" vertex="1">
                    <mxGeometry x="-690" y="320" width="120" height="60" as="geometry"/>
                </mxCell>
                <mxCell id="186" value="" style="edgeStyle=orthogonalEdgeStyle;rounded=0;orthogonalLoop=1;jettySize=auto;html=1;endArrow=none;endFill=0;entryX=0.5;entryY=1;entryDx=0;entryDy=0;exitX=0;exitY=0.5;exitDx=0;exitDy=0;" parent="1" source="23" target="185" edge="1">
                    <mxGeometry relative="1" as="geometry">
                        <mxPoint x="-20" y="409.96000000000004" as="sourcePoint"/>
                        <mxPoint x="-630" y="389.96000000000004" as="targetPoint"/>
                    </mxGeometry>
                </mxCell>
                <mxCell id="187" value="Padre" style="ellipse;whiteSpace=wrap;html=1;" parent="1" vertex="1">
                    <mxGeometry x="-820" y="320" width="120" height="60" as="geometry"/>
                </mxCell>
                <mxCell id="188" value="" style="edgeStyle=orthogonalEdgeStyle;rounded=0;orthogonalLoop=1;jettySize=auto;html=1;endArrow=none;endFill=0;entryX=0.5;entryY=1;entryDx=0;entryDy=0;exitX=0;exitY=0.5;exitDx=0;exitDy=0;" parent="1" source="23" target="187" edge="1">
                    <mxGeometry relative="1" as="geometry">
                        <mxPoint x="-20" y="409.97" as="sourcePoint"/>
                        <mxPoint x="-760" y="389.97" as="targetPoint"/>
                    </mxGeometry>
                </mxCell>
                <mxCell id="189" value="DNI" style="ellipse;whiteSpace=wrap;html=1;strokeColor=#000000;" parent="1" vertex="1">
                    <mxGeometry x="570" y="460" width="120" height="60" as="geometry"/>
                </mxCell>
                <mxCell id="191" value="Nombre" style="ellipse;whiteSpace=wrap;html=1;" parent="1" vertex="1">
                    <mxGeometry x="570" y="530" width="120" height="60" as="geometry"/>
                </mxCell>
                <mxCell id="193" value="" style="edgeStyle=orthogonalEdgeStyle;rounded=0;orthogonalLoop=1;jettySize=auto;html=1;endArrow=none;endFill=0;entryX=0;entryY=0.5;entryDx=0;entryDy=0;exitX=0.25;exitY=1;exitDx=0;exitDy=0;" parent="1" source="28" target="191" edge="1">
                    <mxGeometry relative="1" as="geometry">
                        <mxPoint x="500" y="520.0000000000002" as="sourcePoint"/>
                        <mxPoint x="530" y="580" as="targetPoint"/>
                    </mxGeometry>
                </mxCell>
                <mxCell id="194" value="Primer&lt;br&gt;Apellido" style="ellipse;whiteSpace=wrap;html=1;" parent="1" vertex="1">
                    <mxGeometry x="570" y="600" width="120" height="60" as="geometry"/>
                </mxCell>
                <mxCell id="195" value="" style="edgeStyle=orthogonalEdgeStyle;rounded=0;orthogonalLoop=1;jettySize=auto;html=1;endArrow=none;endFill=0;entryX=0;entryY=0.5;entryDx=0;entryDy=0;exitX=0.25;exitY=1;exitDx=0;exitDy=0;" parent="1" source="28" target="194" edge="1">
                    <mxGeometry relative="1" as="geometry">
                        <mxPoint x="550" y="440.0000000000002" as="sourcePoint"/>
                        <mxPoint x="580" y="570" as="targetPoint"/>
                    </mxGeometry>
                </mxCell>
                <mxCell id="196" value="Segundo&lt;br&gt;apellido&lt;br&gt;" style="ellipse;whiteSpace=wrap;html=1;" parent="1" vertex="1">
                    <mxGeometry x="570" y="670" width="120" height="60" as="geometry"/>
                </mxCell>
                <mxCell id="197" value="" style="edgeStyle=orthogonalEdgeStyle;rounded=0;orthogonalLoop=1;jettySize=auto;html=1;endArrow=none;endFill=0;entryX=0;entryY=0.5;entryDx=0;entryDy=0;exitX=0.25;exitY=1;exitDx=0;exitDy=0;" parent="1" source="28" target="196" edge="1">
                    <mxGeometry relative="1" as="geometry">
                        <mxPoint x="550" y="440.0000000000002" as="sourcePoint"/>
                        <mxPoint x="580" y="640" as="targetPoint"/>
                    </mxGeometry>
                </mxCell>
                <mxCell id="198" value="Número de teléfono" style="ellipse;whiteSpace=wrap;html=1;" parent="1" vertex="1">
                    <mxGeometry x="570" y="740" width="120" height="60" as="geometry"/>
                </mxCell>
                <mxCell id="199" value="" style="edgeStyle=orthogonalEdgeStyle;rounded=0;orthogonalLoop=1;jettySize=auto;html=1;endArrow=none;endFill=0;entryX=0;entryY=0.5;entryDx=0;entryDy=0;exitX=0.25;exitY=1;exitDx=0;exitDy=0;" parent="1" source="28" target="198" edge="1">
                    <mxGeometry relative="1" as="geometry">
                        <mxPoint x="550" y="440.0000000000002" as="sourcePoint"/>
                        <mxPoint x="580" y="710" as="targetPoint"/>
                    </mxGeometry>
                </mxCell>
                <mxCell id="200" value="Curso realizado" style="ellipse;whiteSpace=wrap;html=1;" parent="1" vertex="1">
                    <mxGeometry x="570" y="810" width="120" height="60" as="geometry"/>
                </mxCell>
                <mxCell id="201" value="" style="edgeStyle=orthogonalEdgeStyle;rounded=0;orthogonalLoop=1;jettySize=auto;html=1;endArrow=none;endFill=0;entryX=0;entryY=0.5;entryDx=0;entryDy=0;exitX=0.25;exitY=1;exitDx=0;exitDy=0;" parent="1" source="28" target="200" edge="1">
                    <mxGeometry relative="1" as="geometry">
                        <mxPoint x="550" y="440.0000000000002" as="sourcePoint"/>
                        <mxPoint x="580" y="780" as="targetPoint"/>
                    </mxGeometry>
                </mxCell>
                <mxCell id="202" value="DNI" style="ellipse;whiteSpace=wrap;html=1;strokeColor=#000000;" parent="1" vertex="1">
                    <mxGeometry x="1060" y="1160" width="120" height="60" as="geometry"/>
                </mxCell>
                <mxCell id="204" value="Nombre" style="ellipse;whiteSpace=wrap;html=1;strokeColor=#FFFFFF;" parent="1" vertex="1">
                    <mxGeometry x="1060" y="1250" width="120" height="60" as="geometry"/>
                </mxCell>
                <mxCell id="205" value="" style="edgeStyle=orthogonalEdgeStyle;rounded=0;orthogonalLoop=1;jettySize=auto;html=1;endArrow=none;endFill=0;exitX=0.25;exitY=1;exitDx=0;exitDy=0;entryX=0;entryY=0.5;entryDx=0;entryDy=0;" parent="1" source="157" target="204" edge="1">
                    <mxGeometry relative="1" as="geometry">
                        <mxPoint x="830" y="1120" as="sourcePoint"/>
                        <mxPoint x="837" y="1170" as="targetPoint"/>
                        <Array as="points">
                            <mxPoint x="1050" y="1110"/>
                            <mxPoint x="1050" y="1280"/>
                        </Array>
                    </mxGeometry>
                </mxCell>
                <mxCell id="207" style="edgeStyle=orthogonalEdgeStyle;rounded=0;orthogonalLoop=1;jettySize=auto;html=1;exitX=0;exitY=0.5;exitDx=0;exitDy=0;entryX=0.25;entryY=1;entryDx=0;entryDy=0;endArrow=none;endFill=0;" parent="1" source="206" target="157" edge="1">
                    <mxGeometry relative="1" as="geometry">
                        <Array as="points">
                            <mxPoint x="1050" y="1370"/>
                            <mxPoint x="1050" y="1110"/>
                        </Array>
                    </mxGeometry>
                </mxCell>
                <mxCell id="206" value="Primer&lt;br&gt;apellido" style="ellipse;whiteSpace=wrap;html=1;strokeColor=#FFFFFF;" parent="1" vertex="1">
                    <mxGeometry x="1060" y="1340" width="120" height="60" as="geometry"/>
                </mxCell>
                <mxCell id="209" style="edgeStyle=orthogonalEdgeStyle;rounded=0;orthogonalLoop=1;jettySize=auto;html=1;exitX=0;exitY=0.5;exitDx=0;exitDy=0;entryX=0.25;entryY=1;entryDx=0;entryDy=0;endArrow=none;endFill=0;" parent="1" source="208" target="157" edge="1">
                    <mxGeometry relative="1" as="geometry">
                        <Array as="points">
                            <mxPoint x="1050" y="1450"/>
                            <mxPoint x="1050" y="1110"/>
                        </Array>
                    </mxGeometry>
                </mxCell>
                <mxCell id="208" value="Segundo&amp;nbsp;&lt;br&gt;apellido" style="ellipse;whiteSpace=wrap;html=1;strokeColor=#FFFFFF;" parent="1" vertex="1">
                    <mxGeometry x="1060" y="1420" width="120" height="60" as="geometry"/>
                </mxCell>
                <mxCell id="211" style="edgeStyle=orthogonalEdgeStyle;rounded=0;orthogonalLoop=1;jettySize=auto;html=1;exitX=0;exitY=0.5;exitDx=0;exitDy=0;entryX=0.25;entryY=1;entryDx=0;entryDy=0;endArrow=none;endFill=0;" parent="1" source="210" target="157" edge="1">
                    <mxGeometry relative="1" as="geometry">
                        <Array as="points">
                            <mxPoint x="1050" y="1530"/>
                            <mxPoint x="1050" y="1110"/>
                        </Array>
                    </mxGeometry>
                </mxCell>
                <mxCell id="210" value="Teléfono" style="ellipse;whiteSpace=wrap;html=1;strokeColor=#FFFFFF;" parent="1" vertex="1">
                    <mxGeometry x="1060" y="1500" width="120" height="60" as="geometry"/>
                </mxCell>
                <mxCell id="213" style="edgeStyle=orthogonalEdgeStyle;rounded=0;orthogonalLoop=1;jettySize=auto;html=1;exitX=0;exitY=0.5;exitDx=0;exitDy=0;entryX=0.25;entryY=1;entryDx=0;entryDy=0;endArrow=none;endFill=0;" parent="1" source="212" target="157" edge="1">
                    <mxGeometry relative="1" as="geometry">
                        <Array as="points">
                            <mxPoint x="1050" y="1610"/>
                            <mxPoint x="1050" y="1110"/>
                        </Array>
                    </mxGeometry>
                </mxCell>
                <mxCell id="212" value="Fecha de&amp;nbsp;&lt;br&gt;nacimiento" style="ellipse;whiteSpace=wrap;html=1;strokeColor=#FFFFFF;" parent="1" vertex="1">
                    <mxGeometry x="1060" y="1580" width="120" height="60" as="geometry"/>
                </mxCell>
                <mxCell id="224" style="edgeStyle=orthogonalEdgeStyle;rounded=0;orthogonalLoop=1;jettySize=auto;html=1;entryX=0;entryY=0.5;entryDx=0;entryDy=0;endArrow=none;endFill=0;exitX=1;exitY=0.5;exitDx=0;exitDy=0;" edge="1" parent="1" source="219" target="223">
                    <mxGeometry relative="1" as="geometry">
                        <mxPoint x="880" y="880" as="sourcePoint"/>
                        <Array as="points">
                            <mxPoint x="990" y="890"/>
                            <mxPoint x="990" y="850"/>
                        </Array>
                    </mxGeometry>
                </mxCell>
                <mxCell id="226" style="edgeStyle=orthogonalEdgeStyle;rounded=0;orthogonalLoop=1;jettySize=auto;html=1;entryX=0;entryY=0.5;entryDx=0;entryDy=0;endArrow=none;endFill=0;exitX=1;exitY=0.5;exitDx=0;exitDy=0;" edge="1" parent="1" source="219" target="225">
                    <mxGeometry relative="1" as="geometry">
                        <mxPoint x="870" y="850" as="sourcePoint"/>
                        <Array as="points">
                            <mxPoint x="990" y="890"/>
                            <mxPoint x="990" y="800"/>
                        </Array>
                    </mxGeometry>
                </mxCell>
                <mxCell id="228" style="edgeStyle=orthogonalEdgeStyle;rounded=0;orthogonalLoop=1;jettySize=auto;html=1;entryX=0;entryY=0.5;entryDx=0;entryDy=0;endArrow=none;endFill=0;exitX=0.867;exitY=0.4;exitDx=0;exitDy=0;exitPerimeter=0;" edge="1" parent="1" source="219" target="227">
                    <mxGeometry relative="1" as="geometry">
                        <mxPoint x="830" y="890" as="sourcePoint"/>
                        <Array as="points">
                            <mxPoint x="814" y="890"/>
                            <mxPoint x="990" y="890"/>
                            <mxPoint x="990" y="750"/>
                        </Array>
                    </mxGeometry>
                </mxCell>
                <mxCell id="220" style="edgeStyle=orthogonalEdgeStyle;rounded=0;orthogonalLoop=1;jettySize=auto;html=1;exitX=0.5;exitY=1;exitDx=0;exitDy=0;entryX=0;entryY=0.25;entryDx=0;entryDy=0;endArrow=none;endFill=0;" parent="1" source="219" target="157" edge="1">
                    <mxGeometry relative="1" as="geometry"/>
                </mxCell>
                <mxCell id="221" style="edgeStyle=orthogonalEdgeStyle;rounded=0;orthogonalLoop=1;jettySize=auto;html=1;exitX=0.5;exitY=0;exitDx=0;exitDy=0;endArrow=none;endFill=0;entryX=1;entryY=0.5;entryDx=0;entryDy=0;" parent="1" source="219" target="28" edge="1">
                    <mxGeometry relative="1" as="geometry">
                        <mxPoint x="810" y="340" as="targetPoint"/>
                    </mxGeometry>
                </mxCell>
                <mxCell id="234" style="edgeStyle=orthogonalEdgeStyle;rounded=0;orthogonalLoop=1;jettySize=auto;html=1;exitX=0;exitY=0.5;exitDx=0;exitDy=0;entryX=0.75;entryY=1;entryDx=0;entryDy=0;endArrow=none;endFill=0;" edge="1" parent="1" source="219" target="23">
                    <mxGeometry relative="1" as="geometry"/>
                </mxCell>
                <mxCell id="219" value="Visita" style="shape=rhombus;perimeter=rhombusPerimeter;whiteSpace=wrap;html=1;align=center;strokeColor=#FFFFFF;" parent="1" vertex="1">
                    <mxGeometry x="710" y="860" width="120" height="60" as="geometry"/>
                </mxCell>
                <mxCell id="223" value="Día" style="ellipse;whiteSpace=wrap;html=1;align=center;" vertex="1" parent="1">
                    <mxGeometry x="1000" y="830" width="100" height="40" as="geometry"/>
                </mxCell>
                <mxCell id="225" value="Hora" style="ellipse;whiteSpace=wrap;html=1;align=center;" vertex="1" parent="1">
                    <mxGeometry x="1000" y="780" width="100" height="40" as="geometry"/>
                </mxCell>
                <mxCell id="227" value="Incidencias" style="ellipse;whiteSpace=wrap;html=1;align=center;" vertex="1" parent="1">
                    <mxGeometry x="1000" y="730" width="100" height="40" as="geometry"/>
                </mxCell>
                <mxCell id="232" value="Números&amp;nbsp;&lt;br&gt;correlativos" style="ellipse;whiteSpace=wrap;html=1;align=center;" vertex="1" parent="1">
                    <mxGeometry x="160" y="-340" width="100" height="40" as="geometry"/>
                </mxCell>
                <mxCell id="237" style="edgeStyle=orthogonalEdgeStyle;rounded=0;orthogonalLoop=1;jettySize=auto;html=1;entryX=1;entryY=0.5;entryDx=0;entryDy=0;endArrow=none;endFill=0;" edge="1" parent="1" source="236" target="13">
                    <mxGeometry relative="1" as="geometry"/>
                </mxCell>
                <mxCell id="240" style="edgeStyle=orthogonalEdgeStyle;rounded=0;orthogonalLoop=1;jettySize=auto;html=1;endArrow=none;endFill=0;" edge="1" parent="1" source="236" target="241">
                    <mxGeometry relative="1" as="geometry">
                        <mxPoint x="440" y="70" as="targetPoint"/>
                    </mxGeometry>
                </mxCell>
                <mxCell id="236" value="certificado" style="shape=rhombus;perimeter=rhombusPerimeter;whiteSpace=wrap;html=1;align=center;" vertex="1" parent="1">
                    <mxGeometry x="380" y="120" width="120" height="60" as="geometry"/>
                </mxCell>
                <mxCell id="238" value="Pertenecen" style="shape=rhombus;double=1;perimeter=rhombusPerimeter;whiteSpace=wrap;html=1;align=center;" vertex="1" parent="1">
                    <mxGeometry x="110" y="250" width="120" height="60" as="geometry"/>
                </mxCell>
                <mxCell id="241" value="Nº certificado" style="ellipse;whiteSpace=wrap;html=1;align=center;" vertex="1" parent="1">
                    <mxGeometry x="390" y="50" width="100" height="40" as="geometry"/>
                </mxCell>
                <mxCell id="243" value="Fecha&amp;nbsp;&lt;br&gt;asignación" style="ellipse;whiteSpace=wrap;html=1;align=center;" vertex="1" parent="1">
                    <mxGeometry x="320" y="300" width="100" height="40" as="geometry"/>
                </mxCell>
                <mxCell id="244" value="(0,n)" style="text;html=1;align=center;verticalAlign=middle;resizable=0;points=[];autosize=1;strokeColor=none;" vertex="1" parent="1">
                    <mxGeometry x="195" y="350" width="40" height="20" as="geometry"/>
                </mxCell>
                <mxCell id="245" value="(1,1)" style="text;html=1;align=center;verticalAlign=middle;resizable=0;points=[];autosize=1;strokeColor=none;" vertex="1" parent="1">
                    <mxGeometry x="195" y="180" width="40" height="20" as="geometry"/>
                </mxCell>
                <mxCell id="246" value="1:N" style="text;html=1;align=center;verticalAlign=middle;resizable=0;points=[];autosize=1;strokeColor=none;" vertex="1" parent="1">
                    <mxGeometry x="235" y="270" width="30" height="20" as="geometry"/>
                </mxCell>
                <mxCell id="247" value="(1,1)" style="text;html=1;align=center;verticalAlign=middle;resizable=0;points=[];autosize=1;strokeColor=none;" vertex="1" parent="1">
                    <mxGeometry x="500" y="410" width="40" height="20" as="geometry"/>
                </mxCell>
                <mxCell id="248" value="(1, n)" style="text;html=1;align=center;verticalAlign=middle;resizable=0;points=[];autosize=1;strokeColor=none;" vertex="1" parent="1">
                    <mxGeometry x="230" y="400" width="40" height="20" as="geometry"/>
                </mxCell>
                <mxCell id="249" value="(N:1)" style="text;html=1;align=center;verticalAlign=middle;resizable=0;points=[];autosize=1;strokeColor=none;" vertex="1" parent="1">
                    <mxGeometry x="350" y="440" width="40" height="20" as="geometry"/>
                </mxCell>
                <mxCell id="251" value="(1,n)" style="text;html=1;align=center;verticalAlign=middle;resizable=0;points=[];autosize=1;strokeColor=none;" vertex="1" parent="1">
                    <mxGeometry x="100" y="440" width="40" height="20" as="geometry"/>
                </mxCell>
                <mxCell id="252" value="(1, 1)" style="text;html=1;align=center;verticalAlign=middle;resizable=0;points=[];autosize=1;strokeColor=none;" vertex="1" parent="1">
                    <mxGeometry x="1000" y="1110" width="40" height="20" as="geometry"/>
                </mxCell>
                <mxCell id="253" value="N:1" style="text;html=1;align=center;verticalAlign=middle;resizable=0;points=[];autosize=1;strokeColor=none;" vertex="1" parent="1">
                    <mxGeometry x="399" y="1120" width="30" height="20" as="geometry"/>
                </mxCell>
                <mxCell id="254" value="(1,n)" style="text;html=1;align=center;verticalAlign=middle;resizable=0;points=[];autosize=1;strokeColor=none;" vertex="1" parent="1">
                    <mxGeometry x="220" y="100" width="40" height="20" as="geometry"/>
                </mxCell>
                <mxCell id="255" value="(0,n)" style="text;html=1;align=center;verticalAlign=middle;resizable=0;points=[];autosize=1;strokeColor=none;" vertex="1" parent="1">
                    <mxGeometry x="520" y="320" width="40" height="20" as="geometry"/>
                </mxCell>
                <mxCell id="256" value="N:M" style="text;html=1;align=center;verticalAlign=middle;resizable=0;points=[];autosize=1;strokeColor=none;" vertex="1" parent="1">
                    <mxGeometry x="420" y="190" width="40" height="20" as="geometry"/>
                </mxCell>
            </root>
        </mxGraphModel>
    </diagram>
</mxfile>
